<svg width="120" height="339" viewBox="0 0 120 339" fill="none" xmlns="http://www.w3.org/2000/svg">
<path fill-rule="evenodd" clip-rule="evenodd" d="M58.3516 -5.66886e-08L5.31273 53.0372L5.04413 53.3058L5.04413 53.6857L5.04413 157.07C2.18732 157.511 6.36455e-07 159.98 5.06188e-07 162.96C3.62308e-07 166.252 2.6684 168.92 5.96002 168.92C9.25164 168.92 11.92 166.252 11.92 162.96C11.92 159.981 9.73389 157.512 6.87822 157.07L6.87822 54.0655L59.6485 1.29693L58.3516 -5.66886e-08Z" fill="#FCEE0A"/>
<path fill-rule="evenodd" clip-rule="evenodd" d="M88.3516 -5.66886e-08L35.3127 53.0372L35.0441 53.3058L35.0441 53.6857L35.0441 326.863C32.1877 327.303 30.0009 329.773 30.0009 332.752C30.0009 336.044 32.6693 338.712 35.9609 338.712C39.2525 338.712 41.9208 336.044 41.9208 332.752C41.9208 329.773 39.7343 327.304 36.8782 326.863L36.8782 54.0655L89.6485 1.29693L88.3516 -5.66886e-08Z" fill="#FCEE0A"/>
<path fill-rule="evenodd" clip-rule="evenodd" d="M118.352 -5.66886e-08L65.3127 53.0372L65.0441 53.3058L65.0441 53.6857L65.0441 242.07C62.1873 242.511 60 244.98 60 247.96C60 251.252 62.6684 253.92 65.96 253.92C69.2516 253.92 71.92 251.252 71.92 247.96C71.92 244.981 69.7339 242.512 66.8782 242.07L66.8782 54.0655L119.648 1.29693L118.352 -5.66886e-08Z" fill="#FCEE0A"/>
</svg>
